<svg width="30" height="36" viewBox="0 0 30 36" fill="none" xmlns="http://www.w3.org/2000/svg">
<path d="M3 1H27C28.1046 1 29 1.89543 29 3V33C29 34.1046 28.1046 35 27 35H3C1.89543 35 1 34.1046 1 33V3C1 1.89543 1.89543 1 3 1Z" stroke="white" stroke-width="2"/>
<circle cx="24.5" cy="5.5" r="1.5" fill="white"/>
<circle cx="20.5" cy="5.5" r="1.5" fill="white"/>
<circle cx="15" cy="22" r="8" stroke="white" stroke-width="2"/>
<path d="M4 5.5C4 4.67157 4.67157 4 5.5 4H10.5C11.3284 4 12 4.67157 12 5.5C12 6.32843 11.3284 7 10.5 7H5.5C4.67157 7 4 6.32843 4 5.5Z" fill="white"/>
<path d="M2 10L28 10" stroke="white" stroke-width="2"/>
</svg>
